<svg width="24" height="26" fill="none" xmlns="http://www.w3.org/2000/svg"><path d="M5.833 5.834V1.167a1.167 1.167 0 012.334 0v4.667a1.167 1.167 0 01-2.334 0zM15.167 5.834V1.167a1.167 1.167 0 012.334 0v4.667a1.167 1.167 0 01-2.334 0z" fill="#F5A623"/><path d="M21 5.833c0-.644-.522-1.166-1.166-1.166H3.5c-.644 0-1.166.522-1.166 1.166v16.334c0 .644.522 1.166 1.166 1.166h16.334c.644 0 1.166-.522 1.166-1.166V5.833zm2.334 16.334a3.5 3.5 0 01-3.5 3.5H3.5a3.5 3.5 0 01-3.5-3.5V5.833a3.5 3.5 0 013.5-3.5h16.334a3.5 3.5 0 013.5 3.5v16.334z" fill="#F5A623"/><path d="M22.167 9.333a1.167 1.167 0 010 2.334h-21a1.167 1.167 0 010-2.334h21z" fill="#F5A623"/></svg>