<svg width="21" height="15" fill="none" xmlns="http://www.w3.org/2000/svg"><path d="M18.334 2.75a.917.917 0 00-.917-.916H2.75a.916.916 0 00-.916.916v1.033a3.668 3.668 0 010 7.1v1.034a.917.917 0 00.916.917h14.667a.917.917 0 00.917-.917v-1.034a3.667 3.667 0 010-7.1V2.75zm1.833 1.834c0 .506-.41.916-.917.916a1.834 1.834 0 000 3.667c.506 0 .917.41.917.917v1.833a2.75 2.75 0 01-2.75 2.75H2.75A2.75 2.75 0 010 11.917v-1.833c0-.506.41-.917.917-.917a1.833 1.833 0 000-3.667A.917.917 0 010 4.584V2.75A2.75 2.75 0 012.75 0h14.667a2.75 2.75 0 012.75 2.75v1.834z" fill="#2C2C2C"/><path d="M10.083 2.75V.917a.917.917 0 011.834 0V2.75a.917.917 0 01-1.834 0zM10.083 13.75v-1.833a.917.917 0 011.834 0v1.833a.917.917 0 01-1.834 0zM10.083 8.25V6.417a.917.917 0 011.834 0V8.25a.917.917 0 01-1.834 0z" fill="#2C2C2C"/></svg>