<svg width="24" height="24" fill="none" xmlns="http://www.w3.org/2000/svg"><path d="M19 17h2c.6 0 1-.4 1-1v-3c0-.9-.7-1.7-1.5-1.9C18.7 10.6 16 10 16 10s-1.3-1.4-2.2-2.3c-.5-.4-1.1-.7-1.8-.7H5c-.6 0-1.1.4-1.4.9l-1.4 2.9A3.7 3.7 0 002 12v4c0 .6.4 1 1 1h2" stroke="#C8D97E" stroke-width="2" stroke-linecap="round" stroke-linejoin="round"/><path d="M7 19a2 2 0 100-4 2 2 0 000 4zM9 17h6M17 19a2 2 0 100-4 2 2 0 000 4z" stroke="#C8D97E" stroke-width="2" stroke-linecap="round" stroke-linejoin="round"/></svg>