<svg width="19" height="19" fill="none" xmlns="http://www.w3.org/2000/svg"><path d="M16.5 12.834V1.999L7.334 3.526v11.14a.917.917 0 01-1.834 0V2.75c0-.448.325-.83.767-.905l11-1.833a.918.918 0 011.067.905v11.917a.917.917 0 01-1.834 0z" fill="#fff"/><path d="M5.5 14.667a1.833 1.833 0 10-3.666 0 1.833 1.833 0 003.666 0zm1.834 0a3.667 3.667 0 11-7.335 0 3.667 3.667 0 017.335 0zM16.5 12.833a1.833 1.833 0 10-3.666 0 1.833 1.833 0 003.666 0zm1.834 0a3.667 3.667 0 11-7.335 0 3.667 3.667 0 017.335 0z" fill="#fff"/></svg>