<svg width="35" height="25" fill="none" xmlns="http://www.w3.org/2000/svg"><path d="M31.067.175H3.277c-.646 0-.93.623-.993.935V3.48c0 .598.579.873.869.935h1.24v9.164H3.215c-.596 0-.869.582-.93.872v5.548c-.696 0-.993.54-1.055.81v2.37H.61c-.146.02-.435.15-.435.498 0 .35.29.478.434.499h33.25c.123-.041.359-.2.31-.499a.666.666 0 00-.373-.498h-.682v-2.245c0-.498-.538-.83-.807-.935h-.248v-5.423c0-.598-.579-.914-.868-.997h-1.24V4.414h1.24c.546-.1.806-.665.868-.935V1.11c0-.548-.661-.852-.992-.935z" fill="#F5A623"/><path d="M29.392 17.817l.012.002m0 0c.19.046.546.217.546.559 0 .349-.372.478-.558.498-.166-.02-.496-.15-.496-.498 0-.35.338-.518.508-.559zM3.277.175h27.79c.33.083.992.387.992.935V3.48c-.062.27-.322.835-.868.935h-1.24v9.164h1.24c.29.083.868.399.868.997v5.423h.248c.27.104.807.437.807.935v2.245h.682c.103.041.323.2.372.498.05.3-.186.458-.31.499H.61c-.145-.02-.434-.15-.434-.499s.29-.478.434-.498h.62v-2.37c.063-.27.36-.81 1.055-.81V14.45c.062-.29.335-.872.93-.872h1.18V4.414H3.152c-.29-.062-.869-.337-.869-.935V1.11c.062-.312.347-.935.993-.935zm0 .997l27.79.063v2.182h-7.062c-.127.041-.382.2-.382.498 0 .3.255.457.382.499h.672v1.184H9.666V4.414H22.01c.145-.02.434-.15.434-.499s-.29-.478-.434-.498H3.313l-.036-2.245zm6.389 5.361h2.543l-.868 1.995c-.042.229-.013.686.434.686h2.295c.145-.062.41-.3.31-.748-.099-.449-.537-1.475-.744-1.933h2.791l-.806 2.058c-.02.187.025.573.372.623h2.357a.55.55 0 00.372-.623c-.05-.4-.558-1.538-.806-2.058h2.791l-.806 2.058c-.062.166-.087.523.31.623h2.42a.55.55 0 00.372-.623c-.1-.4-.62-1.538-.869-2.058h2.543v11.878c0 .155.1.465.497.465s.496-.29.496-.436v-1.559l1.116 1.123v1.994H23.5V18.69c-.083-.27-.372-.81-.869-.81H11.713c-.29.062-.869.337-.869.935v1.184H9.666V6.533zM5.448 4.414h1.426L5.448 5.91V4.414zm3.225 0v2.244H6.13l2.171-2.244h.372zm-3.287 3.18H7.99L5.386 10.21V7.593zm3.35 3.303V8.341L6.13 10.96h2.605v-.063zm-3.35.998H7.99L6.378 13.64h-.992v-1.745zm2.17 3.303H8.7v-2.555l-1.39 1.309a.954.954 0 01.248.623v.623zm0 .936h.435l-.434.498v-.498zm1.18 3.864h-1.18v-1.994l1.18-1.123v3.117zm3.039 0v-1.184h10.793v1.184H11.775zm9.305-11.72h.682l-.31-.872-.372.873zm-4.218 0h.62l-.31-.872-.31.873zm-4.28 0h.682l-.31-.872-.373.873zm16.376-3.926v1.62l-1.613-1.62h1.613zm-3.288.062v2.244h2.543l-2.17-2.244h-.373zm3.288 3.18v2.617l-2.606-2.618h2.606zm-3.35.747v2.619h2.605L25.608 8.34zm3.288 3.554v1.683h-.869l-1.675-1.683h2.544zm-3.288.748v2.555h1.178v-.81l.249-.436-1.427-1.31zm1.178 3.49v.5l-.434-.5h.434zm.993-1.558h3.288v5.486h-3.288v-5.486zm-24.502 0h3.287v5.423h-.682c-.124.042-.372.2-.372.5 0 .298.248.456.372.498h26.24v2.244h-29.9v-2.244h1.737c.124-.021.372-.15.372-.499s-.207-.478-.31-.499h-.744v-5.423zm1.674 1.122c.166 0 .497.1.497.499s-.331.54-.497.56c-.186-.02-.558-.161-.558-.56 0-.4.372-.499.558-.499zm0 2.12c.187.041.559.212.559.56 0 .35-.372.479-.559.5-.186 0-.558-.1-.558-.5 0-.398.372-.54.558-.56zm24.44-2.12c.166.042.497.212.497.561 0 .35-.33.437-.496.437-.166 0-.496-.088-.496-.437s.33-.52.496-.56z" stroke="#935C00" stroke-width=".35"/></svg>