<svg width="27" height="27" fill="none" xmlns="http://www.w3.org/2000/svg"><path d="M24 18.666V2.906L10.666 5.129v16.206a1.333 1.333 0 11-2.666 0V4c0-.651.471-1.208 1.114-1.315l16-2.667a1.334 1.334 0 011.552 1.316v17.332a1.334 1.334 0 11-2.666 0z" fill="#F5A623"/><path d="M8 21.334a2.667 2.667 0 10-5.334 0 2.667 2.667 0 005.334 0zm2.666 0a5.333 5.333 0 11-10.666 0 5.333 5.333 0 0110.666 0zM24 18.667a2.667 2.667 0 10-5.334 0 2.667 2.667 0 005.334 0zm2.666 0a5.333 5.333 0 11-10.666 0 5.333 5.333 0 0110.666 0z" fill="#F5A623"/></svg>