<svg width="21" height="21" fill="none" xmlns="http://www.w3.org/2000/svg"><path d="M19 9c0-2.79-.559-4.63-1.26-6.219a8.15 8.15 0 01-2.556 1.704c-1.455.628-3.365 1.05-6.194 1.597A6 6 0 009.998 18H10l.438-.012C14.95 17.745 19 13.776 19 9zm2 0c0 6.07-5.245 10.998-10.998 10.999H10a8 8 0 01-1.39-15.88l1.023-.201c2.263-.453 3.69-.808 4.758-1.269 1.15-.497 1.903-1.127 2.83-2.277l.086-.093a1 1 0 011.588.274C19.927 2.617 21 4.958 21 9z" fill="#6B8E23"/><path d="M0 20c0-3.485 2.195-6.25 5.886-6.98 1.087-.216 2.222-.674 3.214-1.207.999-.536 1.784-1.112 2.193-1.52a1 1 0 111.414 1.414c-.591.591-1.556 1.276-2.661 1.87-.974.522-2.11 1.003-3.273 1.292l-.499.111C3.504 15.53 2 17.485 2 20a1 1 0 11-2 0z" fill="#6B8E23"/></svg>