<svg width="44" height="44" fill="none" xmlns="http://www.w3.org/2000/svg"><path d="M0 22C0 9.85 9.85 0 22 0s22 9.85 22 22-9.85 22-22 22S0 34.15 0 22z" fill="#C8D97E"/><path d="M26.167 13.667h-8.334a4.167 4.167 0 00-4.166 4.166v8.334a4.167 4.167 0 004.166 4.166h8.334a4.167 4.167 0 004.166-4.166v-8.334a4.167 4.167 0 00-4.166-4.166z" stroke="#fff" stroke-width="1.667" stroke-linecap="round" stroke-linejoin="round"/><path d="M25.333 21.475a3.333 3.333 0 11-6.594.978 3.333 3.333 0 016.594-.978zM26.583 17.417h.009" stroke="#fff" stroke-width="1.667" stroke-linecap="round" stroke-linejoin="round"/></svg>