<svg width="17" height="17" fill="none" xmlns="http://www.w3.org/2000/svg"><path d="M7.5 10.833v-10a.833.833 0 111.666 0v10a.833.833 0 11-1.666 0z" fill="#F5A623"/><path d="M0 14.166v-3.333a.833.833 0 111.666 0v3.333A.835.835 0 002.5 15h11.666a.835.835 0 00.834-.834v-3.333a.833.833 0 111.666 0v3.333a2.501 2.501 0 01-2.5 2.5H2.5a2.501 2.501 0 01-2.5-2.5z" fill="#F5A623"/><path d="M11.91 6.078a.834.834 0 011.18 1.177l-4.168 4.167a.834.834 0 01-1.179 0L3.577 7.255a.832.832 0 111.178-1.177l3.577 3.576 3.579-3.576z" fill="#F5A623"/></svg>