<svg width="48" height="48" fill="none" xmlns="http://www.w3.org/2000/svg"><path d="M0 24C0 10.745 10.745 0 24 0s24 10.745 24 24-10.745 24-24 24S0 37.255 0 24z" fill="#F5A623"/><path d="M31 29h2c.6 0 1-.4 1-1v-3c0-.9-.7-1.7-1.5-1.9C30.7 22.6 28 22 28 22s-1.3-1.4-2.2-2.3c-.5-.4-1.1-.7-1.8-.7h-7c-.6 0-1.1.4-1.4.9l-1.4 2.9A3.7 3.7 0 0014 24v4c0 .6.4 1 1 1h2" stroke="#935C00" stroke-width="2" stroke-linecap="round" stroke-linejoin="round"/><path d="M19 31a2 2 0 100-4 2 2 0 000 4zM21 29h6M29 31a2 2 0 100-4 2 2 0 000 4z" stroke="#935C00" stroke-width="2" stroke-linecap="round" stroke-linejoin="round"/></svg>