<svg width="48" height="48" fill="none" xmlns="http://www.w3.org/2000/svg"><path d="M0 24C0 10.745 10.745 0 24 0s24 10.745 24 24-10.745 24-24 24S0 37.255 0 24z" fill="#F5A623"/><path d="M25.526 27.807a.833.833 0 001.011-.253l.296-.387a1.666 1.666 0 011.334-.667h2.5a1.666 1.666 0 011.666 1.667v2.5a1.667 1.667 0 01-1.666 1.666 15 15 0 01-15-15 1.667 1.667 0 011.666-1.666h2.5a1.667 1.667 0 011.667 1.666v2.5a1.667 1.667 0 01-.667 1.334l-.39.292a.834.834 0 00-.243 1.028 11.667 11.667 0 005.326 5.32z" stroke="#935C00" stroke-width="1.667" stroke-linecap="round" stroke-linejoin="round"/></svg>