<svg width="48" height="48" fill="none" xmlns="http://www.w3.org/2000/svg"><path d="M0 24C0 10.745 10.745 0 24 0s24 10.745 24 24-10.745 24-24 24S0 37.255 0 24z" fill="#F5A623"/><path d="M32.333 19.833l-7.492 4.773a1.667 1.667 0 01-1.675 0l-7.5-4.773" stroke="#935C00" stroke-width="1.667" stroke-linecap="round" stroke-linejoin="round"/><path d="M30.666 17.333H17.334c-.92 0-1.666.747-1.666 1.667v10c0 .92.746 1.667 1.666 1.667h13.334c.92 0 1.666-.747 1.666-1.667V19c0-.92-.746-1.667-1.666-1.667z" stroke="#935C00" stroke-width="1.667" stroke-linecap="round" stroke-linejoin="round"/></svg>