<svg width="48" height="48" fill="none" xmlns="http://www.w3.org/2000/svg"><path d="M0 24C0 10.745 10.745 0 24 0s24 10.745 24 24-10.745 24-24 24S0 37.255 0 24z" fill="#C8D97E"/><path d="M32 22c0-2.79-.559-4.63-1.26-6.219a8.15 8.15 0 01-2.556 1.704c-1.455.628-3.365 1.05-6.194 1.597A6 6 0 0022.998 31H23l.438-.012C27.95 30.745 32 26.776 32 22zm2 0c0 6.07-5.244 10.998-10.998 10.999L23 33v-.001a8 8 0 01-1.39-15.88l1.023-.201c2.263-.453 3.69-.808 4.758-1.269 1.15-.496 1.904-1.127 2.831-2.277l.085-.093a1.001 1.001 0 011.588.274C32.927 15.617 34 17.958 34 22z" fill="#6B8E23"/><path d="M13 33c0-3.485 2.195-6.25 5.886-6.98 1.087-.216 2.222-.674 3.214-1.206.999-.537 1.784-1.113 2.193-1.521a1 1 0 111.414 1.414c-.591.591-1.556 1.276-2.661 1.87-.974.522-2.11 1.003-3.273 1.292l-.499.111C16.504 28.53 15 30.485 15 33a1 1 0 11-2 0z" fill="#6B8E23"/></svg>