<svg width="27" height="30" fill="none" xmlns="http://www.w3.org/2000/svg"><path d="M6.667 6.666V1.333a1.333 1.333 0 112.666 0v5.333a1.334 1.334 0 11-2.666 0zM17.333 6.666V1.333a1.333 1.333 0 112.666 0v5.333a1.334 1.334 0 11-2.666 0z" fill="#F5A623"/><path d="M24 6.667c0-.737-.598-1.334-1.334-1.334H4c-.736 0-1.334.597-1.334 1.334v18.666c0 .736.598 1.334 1.334 1.334h18.666c.736 0 1.334-.598 1.334-1.334V6.667zm2.666 18.666a4 4 0 01-4 4H4a4 4 0 01-4-4V6.667a4 4 0 014-4h18.666a4 4 0 014 4v18.666z" fill="#F5A623"/><path d="M25.333 10.667a1.333 1.333 0 110 2.666h-24a1.333 1.333 0 110-2.666h24z" fill="#F5A623"/></svg>