<svg width="48" height="48" fill="none" xmlns="http://www.w3.org/2000/svg"><path d="M0 24C0 10.745 10.745 0 24 0s24 10.745 24 24-10.745 24-24 24S0 37.255 0 24z" fill="#C8D97E"/><path d="M22 34v-6.57M24 23h.01M24 19h.01M26 27.43V34M27 28a5 5 0 00-6 0M28 23h.01M28 19h.01M20 23h.01M20 19h.01" stroke="#6B8E23" stroke-width="2" stroke-linecap="round" stroke-linejoin="round"/><path d="M30 14H18a2 2 0 00-2 2v16a2 2 0 002 2h12a2 2 0 002-2V16a2 2 0 00-2-2z" stroke="#6B8E23" stroke-width="2" stroke-linecap="round" stroke-linejoin="round"/></svg>