<svg width="24" height="30" fill="none" xmlns="http://www.w3.org/2000/svg"><path d="M21.333 12a9.334 9.334 0 00-18.667 0c0 2.879 1.622 5.982 3.73 8.752 2.038 2.677 4.376 4.844 5.603 5.91 1.227-1.066 3.566-3.233 5.603-5.91 2.108-2.77 3.73-5.873 3.731-8.752zM24 12c0 3.778-2.071 7.47-4.275 10.366-2.236 2.937-4.779 5.276-6.052 6.375-.023.02-.047.038-.07.056a2.668 2.668 0 01-3.205 0 1.399 1.399 0 01-.07-.056c-1.274-1.1-3.818-3.438-6.054-6.375C2.07 19.47 0 15.778 0 12a12 12 0 1124 0z" fill="#F5A623"/><path d="M14.667 12a2.667 2.667 0 10-5.335 0 2.667 2.667 0 005.335 0zm2.666 0a5.333 5.333 0 11-10.666 0 5.333 5.333 0 0110.666 0z" fill="#F5A623"/></svg>