<svg width="48" height="48" fill="none" xmlns="http://www.w3.org/2000/svg"><path d="M0 24C0 10.745 10.745 0 24 0s24 10.745 24 24-10.745 24-24 24S0 37.255 0 24z" fill="#F8D576"/><path d="M27 33v-2a3 3 0 00-3-3h-6a3 3 0 00-3 3v2a1 1 0 11-2 0v-2a5 5 0 015-5h6a5 5 0 015 5v2a1 1 0 11-2 0zM29.996 19a3 3 0 00-2.247-2.904 1 1 0 11.502-1.936 5 5 0 010 9.68 1 1 0 01-.502-1.936A3.001 3.001 0 0029.996 19zM33 33v-1.999l-.01-.248a3 3 0 00-2.24-2.655 1 1 0 11.5-1.936A5 5 0 0135 31V33a1 1 0 01-2 0zM24 19a3 3 0 10-6 0 3 3 0 006 0zm2 0a5 5 0 11-10 0 5 5 0 0110 0z" fill="#2C2C2C"/></svg>