<svg width="21" height="26" fill="none" xmlns="http://www.w3.org/2000/svg"><path d="M18.667 10.5a8.167 8.167 0 00-16.333 0c0 2.52 1.42 5.235 3.264 7.658 1.782 2.342 3.828 4.238 4.902 5.17 1.074-.932 3.12-2.828 4.903-5.17 1.845-2.423 3.264-5.139 3.264-7.658zm2.333 0c0 3.306-1.811 6.537-3.74 9.071-1.956 2.57-4.182 4.615-5.296 5.577a2.334 2.334 0 01-2.866.05 1.147 1.147 0 01-.06-.05c-1.115-.962-3.34-3.007-5.297-5.577C1.812 17.037 0 13.806 0 10.5a10.5 10.5 0 0121 0z" fill="#F5A623"/><path d="M12.833 10.5a2.333 2.333 0 10-4.665 0 2.333 2.333 0 004.665 0zm2.334 0a4.667 4.667 0 11-9.334 0 4.667 4.667 0 019.334 0z" fill="#F5A623"/></svg>