<svg width="48" height="48" fill="none" xmlns="http://www.w3.org/2000/svg"><path d="M0 24C0 10.745 10.745 0 24 0s24 10.745 24 24-10.745 24-24 24S0 37.255 0 24z" fill="#F5A623"/><path d="M31 22a7.001 7.001 0 10-14 0c0 2.16 1.217 4.487 2.798 6.564 1.528 2.008 3.282 3.632 4.202 4.431.92-.799 2.674-2.423 4.202-4.43C29.783 26.486 31 24.159 31 22zm2 0c0 2.834-1.553 5.603-3.206 7.775-1.677 2.203-3.584 3.956-4.54 4.78a2 2 0 01-2.51 0c-.954-.824-2.862-2.577-4.538-4.78C16.553 27.603 15 24.834 15 22a9 9 0 1118 0z" fill="#F5A623"/><path d="M26 22a2 2 0 10-4 0 2 2 0 004 0zm2 0a4 4 0 11-8 0 4 4 0 018 0z" fill="#F5A623"/><path d="M31 22a7.001 7.001 0 10-14 0c0 2.16 1.217 4.487 2.798 6.564 1.528 2.008 3.282 3.632 4.202 4.431.92-.799 2.674-2.423 4.202-4.43C29.783 26.486 31 24.159 31 22zm2 0c0 2.834-1.553 5.603-3.206 7.775-1.677 2.203-3.584 3.956-4.54 4.78a2 2 0 01-2.51 0c-.954-.824-2.862-2.577-4.538-4.78C16.553 27.603 15 24.834 15 22a9 9 0 1118 0z" fill="#935C00"/><path d="M26 22a2 2 0 10-4 0 2 2 0 004 0zm2 0a4 4 0 11-8 0 4 4 0 018 0z" fill="#935C00"/></svg>