<svg width="48" height="48" fill="none" xmlns="http://www.w3.org/2000/svg"><path d="M0 24C0 10.745 10.745 0 24 0s24 10.745 24 24-10.745 24-24 24S0 37.255 0 24z" fill="#F5A623"/><path d="M32 28V16.18l-10 1.667V30a1 1 0 11-2 0V17a1 1 0 01.836-.986l12-2A1 1 0 0134 15v13a1 1 0 11-2 0z" fill="#F5A623"/><path d="M20 30a2 2 0 10-4 0 2 2 0 004 0zm2 0a4 4 0 11-8 0 4 4 0 018 0zM32 28a2 2 0 10-4 0 2 2 0 004 0zm2 0a4 4 0 11-8 0 4 4 0 018 0z" fill="#F5A623"/><path d="M31 28V16.18l-10 1.667V30a1 1 0 11-2 0V17a1 1 0 01.836-.986l12-2A1 1 0 0133 15v13a1 1 0 11-2 0z" fill="#935C00"/><path d="M19 30a2 2 0 10-4 0 2 2 0 004 0zm2 0a4 4 0 11-8 0 4 4 0 018 0zM31 28a2 2 0 10-4 0 2 2 0 004 0zm2 0a4 4 0 11-8 0 4 4 0 018 0z" fill="#935C00"/></svg>